%TF.GenerationSoftware,KiCad,Pcbnew,9.0.9*%
%TF.CreationDate,2026-07-11T10:22:51+05:30*%
%TF.ProjectId,STM32_project1,53544d33-325f-4707-926f-6a656374312e,rev?*%
%TF.SameCoordinates,Original*%
%TF.FileFunction,Soldermask,Top*%
%TF.FilePolarity,Negative*%
%FSLAX46Y46*%
G04 Gerber Fmt 4.6, Leading zero omitted, Abs format (unit mm)*
G04 Created by KiCad (PCBNEW 9.0.9) date 2026-07-11 10:22:51*
%MOMM*%
%LPD*%
G01*
G04 APERTURE LIST*
G04 Aperture macros list*
%AMRoundRect*
0 Rectangle with rounded corners*
0 $1 Rounding radius*
0 $2 $3 $4 $5 $6 $7 $8 $9 X,Y pos of 4 corners*
0 Add a 4 corners polygon primitive as box body*
4,1,4,$2,$3,$4,$5,$6,$7,$8,$9,$2,$3,0*
0 Add four circle primitives for the rounded corners*
1,1,$1+$1,$2,$3*
1,1,$1+$1,$4,$5*
1,1,$1+$1,$6,$7*
1,1,$1+$1,$8,$9*
0 Add four rect primitives between the rounded corners*
20,1,$1+$1,$2,$3,$4,$5,0*
20,1,$1+$1,$4,$5,$6,$7,0*
20,1,$1+$1,$6,$7,$8,$9,0*
20,1,$1+$1,$8,$9,$2,$3,0*%
G04 Aperture macros list end*
%ADD10C,2.200000*%
%ADD11R,1.700000X1.700000*%
%ADD12C,1.700000*%
%ADD13O,0.800000X0.800000*%
%ADD14R,1.300000X0.450000*%
%ADD15O,1.800000X1.150000*%
%ADD16O,2.000000X1.450000*%
%ADD17RoundRect,0.075000X-0.662500X-0.075000X0.662500X-0.075000X0.662500X0.075000X-0.662500X0.075000X0*%
%ADD18RoundRect,0.075000X-0.075000X-0.662500X0.075000X-0.662500X0.075000X0.662500X-0.075000X0.662500X0*%
%ADD19RoundRect,0.140000X0.170000X-0.140000X0.170000X0.140000X-0.170000X0.140000X-0.170000X-0.140000X0*%
%ADD20RoundRect,0.140000X0.140000X0.170000X-0.140000X0.170000X-0.140000X-0.170000X0.140000X-0.170000X0*%
%ADD21R,0.800000X1.000000*%
%ADD22C,0.900000*%
%ADD23R,1.500000X0.700000*%
%ADD24RoundRect,0.135000X0.135000X0.185000X-0.135000X0.185000X-0.135000X-0.185000X0.135000X-0.185000X0*%
%ADD25RoundRect,0.140000X-0.140000X-0.170000X0.140000X-0.170000X0.140000X0.170000X-0.140000X0.170000X0*%
%ADD26RoundRect,0.250000X0.475000X-0.250000X0.475000X0.250000X-0.475000X0.250000X-0.475000X-0.250000X0*%
%ADD27RoundRect,0.218750X-0.256250X0.218750X-0.256250X-0.218750X0.256250X-0.218750X0.256250X0.218750X0*%
%ADD28RoundRect,0.135000X0.185000X-0.135000X0.185000X0.135000X-0.185000X0.135000X-0.185000X-0.135000X0*%
%ADD29RoundRect,0.135000X-0.135000X-0.185000X0.135000X-0.185000X0.135000X0.185000X-0.135000X0.185000X0*%
%ADD30RoundRect,0.250000X-0.250000X-0.475000X0.250000X-0.475000X0.250000X0.475000X-0.250000X0.475000X0*%
%ADD31RoundRect,0.225000X-0.225000X-0.250000X0.225000X-0.250000X0.225000X0.250000X-0.225000X0.250000X0*%
%ADD32RoundRect,0.375000X-0.375000X0.625000X-0.375000X-0.625000X0.375000X-0.625000X0.375000X0.625000X0*%
%ADD33RoundRect,0.500000X-1.400000X0.500000X-1.400000X-0.500000X1.400000X-0.500000X1.400000X0.500000X0*%
%ADD34RoundRect,0.140000X-0.170000X0.140000X-0.170000X-0.140000X0.170000X-0.140000X0.170000X0.140000X0*%
%ADD35RoundRect,0.250000X-0.350000X0.450000X-0.350000X-0.450000X0.350000X-0.450000X0.350000X0.450000X0*%
G04 APERTURE END LIST*
D10*
%TO.C,H1*%
X126250000Y-78517767D03*
%TD*%
D11*
%TO.C,J2*%
X118060000Y-78500000D03*
D12*
X115520000Y-78500000D03*
X112980000Y-78500000D03*
X110440000Y-78500000D03*
%TD*%
D10*
%TO.C,H2*%
X85500000Y-78517767D03*
%TD*%
%TO.C,H4*%
X126250000Y-107500000D03*
%TD*%
D13*
%TO.C,J1*%
X123945000Y-91755000D03*
X123945000Y-86755000D03*
D14*
X122845000Y-90555000D03*
X122845000Y-89905000D03*
X122845000Y-89255000D03*
X122845000Y-88605000D03*
X122845000Y-87955000D03*
D15*
X126695000Y-93130000D03*
D16*
X122895000Y-92980000D03*
X122895000Y-85530000D03*
D15*
X126695000Y-85380000D03*
%TD*%
D17*
%TO.C,U1*%
X99587500Y-87750000D03*
X99587500Y-88250000D03*
X99587500Y-88750000D03*
X99587500Y-89250000D03*
X99587500Y-89750000D03*
X99587500Y-90250000D03*
X99587500Y-90750000D03*
X99587500Y-91250000D03*
X99587500Y-91750000D03*
X99587500Y-92250000D03*
X99587500Y-92750000D03*
X99587500Y-93250000D03*
D18*
X101000000Y-94662500D03*
X101500000Y-94662500D03*
X102000000Y-94662500D03*
X102500000Y-94662500D03*
X103000000Y-94662500D03*
X103500000Y-94662500D03*
X104000000Y-94662500D03*
X104500000Y-94662500D03*
X105000000Y-94662500D03*
X105500000Y-94662500D03*
X106000000Y-94662500D03*
X106500000Y-94662500D03*
D17*
X107912500Y-93250000D03*
X107912500Y-92750000D03*
X107912500Y-92250000D03*
X107912500Y-91750000D03*
X107912500Y-91250000D03*
X107912500Y-90750000D03*
X107912500Y-90250000D03*
X107912500Y-89750000D03*
X107912500Y-89250000D03*
X107912500Y-88750000D03*
X107912500Y-88250000D03*
X107912500Y-87750000D03*
D18*
X106500000Y-86337500D03*
X106000000Y-86337500D03*
X105500000Y-86337500D03*
X105000000Y-86337500D03*
X104500000Y-86337500D03*
X104000000Y-86337500D03*
X103500000Y-86337500D03*
X103000000Y-86337500D03*
X102500000Y-86337500D03*
X102000000Y-86337500D03*
X101500000Y-86337500D03*
X101000000Y-86337500D03*
%TD*%
D11*
%TO.C,J4*%
X98670000Y-107250000D03*
D12*
X101210000Y-107250000D03*
X103750000Y-107250000D03*
X106290000Y-107250000D03*
%TD*%
D11*
%TO.C,J3*%
X105500000Y-78500000D03*
D12*
X102960000Y-78500000D03*
X100420000Y-78500000D03*
X97880000Y-78500000D03*
%TD*%
D19*
%TO.C,C6*%
X97500000Y-91750000D03*
X97500000Y-90790000D03*
%TD*%
%TO.C,C4*%
X97500000Y-87750000D03*
X97500000Y-86790000D03*
%TD*%
D20*
%TO.C,C8*%
X94230000Y-100250000D03*
X93270000Y-100250000D03*
%TD*%
D10*
%TO.C,H3*%
X85500000Y-107500000D03*
%TD*%
D20*
%TO.C,C7*%
X94230000Y-99000000D03*
X93270000Y-99000000D03*
%TD*%
D21*
%TO.C,SW1*%
X88030000Y-82100000D03*
X85820000Y-82100000D03*
D22*
X86920000Y-84250000D03*
X86920000Y-87250000D03*
D21*
X88030000Y-89400000D03*
X85820000Y-89400000D03*
D23*
X88680000Y-83500000D03*
X88680000Y-86500000D03*
X88680000Y-88000000D03*
%TD*%
D20*
%TO.C,C2*%
X106730000Y-98500000D03*
X105770000Y-98500000D03*
%TD*%
D24*
%TO.C,R4*%
X100670000Y-103000000D03*
X99650000Y-103000000D03*
%TD*%
D25*
%TO.C,C9*%
X100000000Y-96500000D03*
X100960000Y-96500000D03*
%TD*%
D26*
%TO.C,C12*%
X119500000Y-102750000D03*
X119500000Y-100850000D03*
%TD*%
D19*
%TO.C,C11*%
X90750000Y-95730000D03*
X90750000Y-94770000D03*
%TD*%
D27*
%TO.C,FB1*%
X96000000Y-98212500D03*
X96000000Y-99787500D03*
%TD*%
D28*
%TO.C,R2*%
X118500000Y-89270000D03*
X118500000Y-88250000D03*
%TD*%
D27*
%TO.C,D1*%
X123000000Y-101212500D03*
X123000000Y-102787500D03*
%TD*%
D20*
%TO.C,C3*%
X106730000Y-97000000D03*
X105770000Y-97000000D03*
%TD*%
D29*
%TO.C,R1*%
X92605000Y-85500000D03*
X93625000Y-85500000D03*
%TD*%
D25*
%TO.C,C1*%
X100790000Y-84250000D03*
X101750000Y-84250000D03*
%TD*%
D30*
%TO.C,C13*%
X113350000Y-96500000D03*
X115250000Y-96500000D03*
%TD*%
D29*
%TO.C,R3*%
X123000000Y-98500000D03*
X124020000Y-98500000D03*
%TD*%
D31*
%TO.C,C5*%
X100500000Y-82750000D03*
X102050000Y-82750000D03*
%TD*%
D32*
%TO.C,U2*%
X116550000Y-99350000D03*
X114250000Y-99350000D03*
D33*
X114250000Y-105650000D03*
D32*
X111950000Y-99350000D03*
%TD*%
D34*
%TO.C,C10*%
X90650000Y-92690000D03*
X90650000Y-93650000D03*
%TD*%
D35*
%TO.C,Y1*%
X87050000Y-92800000D03*
X87050000Y-95000000D03*
X88750000Y-95000000D03*
X88750000Y-92800000D03*
%TD*%
D29*
%TO.C,R5*%
X103500000Y-103000000D03*
X104520000Y-103000000D03*
%TD*%
M02*
