%TF.GenerationSoftware,KiCad,Pcbnew,9.0.9*%
%TF.CreationDate,2026-07-11T10:22:51+05:30*%
%TF.ProjectId,STM32_project1,53544d33-325f-4707-926f-6a656374312e,rev?*%
%TF.SameCoordinates,Original*%
%TF.FileFunction,Copper,L2,Bot*%
%TF.FilePolarity,Positive*%
%FSLAX46Y46*%
G04 Gerber Fmt 4.6, Leading zero omitted, Abs format (unit mm)*
G04 Created by KiCad (PCBNEW 9.0.9) date 2026-07-11 10:22:51*
%MOMM*%
%LPD*%
G01*
G04 APERTURE LIST*
%TA.AperFunction,ComponentPad*%
%ADD10R,1.700000X1.700000*%
%TD*%
%TA.AperFunction,ComponentPad*%
%ADD11C,1.700000*%
%TD*%
%TA.AperFunction,HeatsinkPad*%
%ADD12O,1.800000X1.150000*%
%TD*%
%TA.AperFunction,HeatsinkPad*%
%ADD13O,2.000000X1.450000*%
%TD*%
%TA.AperFunction,ViaPad*%
%ADD14C,0.600000*%
%TD*%
G04 APERTURE END LIST*
D10*
%TO.P,J2,1,Pin_1*%
%TO.N,+3.3V*%
X118060000Y-78500000D03*
D11*
%TO.P,J2,2,Pin_2*%
%TO.N,/SWDIO*%
X115520000Y-78500000D03*
%TO.P,J2,3,Pin_3*%
%TO.N,/SWCLK*%
X112980000Y-78500000D03*
%TO.P,J2,4,Pin_4*%
%TO.N,GND*%
X110440000Y-78500000D03*
%TD*%
D12*
%TO.P,J1,6,Shield*%
%TO.N,unconnected-(J1-Shield-Pad6)_2*%
X126695000Y-93130000D03*
D13*
%TO.N,unconnected-(J1-Shield-Pad6)_3*%
X122895000Y-92980000D03*
%TO.N,unconnected-(J1-Shield-Pad6)*%
X122895000Y-85530000D03*
D12*
%TO.N,unconnected-(J1-Shield-Pad6)_1*%
X126695000Y-85380000D03*
%TD*%
D10*
%TO.P,J4,1,Pin_1*%
%TO.N,+3.3V*%
X98670000Y-107250000D03*
D11*
%TO.P,J4,2,Pin_2*%
%TO.N,/I2C2_SCL*%
X101210000Y-107250000D03*
%TO.P,J4,3,Pin_3*%
%TO.N,/I2C2_SDA*%
X103750000Y-107250000D03*
%TO.P,J4,4,Pin_4*%
%TO.N,GND*%
X106290000Y-107250000D03*
%TD*%
D10*
%TO.P,J3,1,Pin_1*%
%TO.N,+3.3V*%
X105500000Y-78500000D03*
D11*
%TO.P,J3,2,Pin_2*%
%TO.N,/USART1_TX*%
X102960000Y-78500000D03*
%TO.P,J3,3,Pin_3*%
%TO.N,/USART1_RX*%
X100420000Y-78500000D03*
%TO.P,J3,4,Pin_4*%
%TO.N,GND*%
X97880000Y-78500000D03*
%TD*%
D14*
%TO.N,GND*%
X106000000Y-93000000D03*
X120750000Y-88000000D03*
X92250000Y-99000000D03*
X101750000Y-96500000D03*
X87000000Y-96500000D03*
X108000000Y-80750000D03*
X116000000Y-101000000D03*
X99000000Y-82000000D03*
X116500000Y-97000000D03*
X101000000Y-91500000D03*
X91750000Y-93500000D03*
X117000000Y-101000000D03*
X88750000Y-91250000D03*
X96540000Y-90790000D03*
X120750000Y-101000000D03*
X90750000Y-83500000D03*
X116500000Y-95750000D03*
X93250000Y-101250000D03*
X97500000Y-85750000D03*
X95250000Y-78750000D03*
X125250000Y-98500000D03*
%TD*%
%TA.AperFunction,Conductor*%
%TO.N,GND*%
G36*
X126254118Y-76518537D02*
G01*
X126282500Y-76520397D01*
X126502757Y-76534833D01*
X126519075Y-76536981D01*
X126759418Y-76584787D01*
X126775332Y-76589052D01*
X126886811Y-76626894D01*
X127007360Y-76667815D01*
X127022587Y-76674122D01*
X127242355Y-76782498D01*
X127256620Y-76790733D01*
X127460374Y-76926876D01*
X127473437Y-76936900D01*
X127657665Y-77098462D01*
X127669319Y-77110116D01*
X127830877Y-77294335D01*
X127840910Y-77307410D01*
X127977049Y-77511152D01*
X127985290Y-77525426D01*
X128093666Y-77745186D01*
X128099974Y-77760412D01*
X128178740Y-77992440D01*
X128183006Y-78008360D01*
X128230813Y-78248687D01*
X128232964Y-78265028D01*
X128249230Y-78513150D01*
X128249500Y-78521392D01*
X128249500Y-107705168D01*
X128247850Y-107725492D01*
X128212817Y-107939837D01*
X128209324Y-107955143D01*
X128142882Y-108180518D01*
X128137514Y-108195268D01*
X128043563Y-108410626D01*
X128036406Y-108424587D01*
X127916400Y-108626596D01*
X127907556Y-108639567D01*
X127763370Y-108825073D01*
X127752982Y-108836844D01*
X127586844Y-109002982D01*
X127575073Y-109013370D01*
X127389567Y-109157556D01*
X127376596Y-109166400D01*
X127174587Y-109286406D01*
X127160626Y-109293563D01*
X126945271Y-109387514D01*
X126930517Y-109392883D01*
X126705141Y-109459325D01*
X126689836Y-109462817D01*
X126576630Y-109481319D01*
X126475491Y-109497849D01*
X126455170Y-109499499D01*
X85790658Y-109499499D01*
X85765764Y-109495427D01*
X85725047Y-109499499D01*
X85684106Y-109499499D01*
X85679630Y-109500088D01*
X85656657Y-109503526D01*
X85450110Y-109510845D01*
X85433937Y-109510379D01*
X85192839Y-109487873D01*
X85176860Y-109485338D01*
X84940639Y-109432124D01*
X84925115Y-109427562D01*
X84794960Y-109380041D01*
X84697650Y-109344512D01*
X84682848Y-109338001D01*
X84467912Y-109226494D01*
X84454061Y-109218139D01*
X84366836Y-109157556D01*
X84255182Y-109080005D01*
X84242513Y-109069941D01*
X84062974Y-108907461D01*
X84051700Y-108895857D01*
X83894464Y-108711711D01*
X83884770Y-108698758D01*
X83842083Y-108633353D01*
X83752427Y-108495980D01*
X83744473Y-108481892D01*
X83670836Y-108329353D01*
X83639206Y-108263830D01*
X83633122Y-108248837D01*
X83556669Y-108019088D01*
X83552556Y-108003440D01*
X83520727Y-107840356D01*
X83506170Y-107765772D01*
X83504098Y-107749729D01*
X83503101Y-107734236D01*
X83488291Y-107504041D01*
X83488031Y-107495951D01*
X83488031Y-107393713D01*
X84149500Y-107393713D01*
X84149500Y-107606287D01*
X84182754Y-107816243D01*
X84248443Y-108018412D01*
X84344949Y-108207816D01*
X84469896Y-108379792D01*
X84469898Y-108379794D01*
X84469900Y-108379797D01*
X84620202Y-108530099D01*
X84620205Y-108530101D01*
X84620208Y-108530104D01*
X84792184Y-108655051D01*
X84981588Y-108751557D01*
X85183757Y-108817246D01*
X85393713Y-108850500D01*
X85393716Y-108850500D01*
X85606284Y-108850500D01*
X85606287Y-108850500D01*
X85816243Y-108817246D01*
X86018412Y-108751557D01*
X86207816Y-108655051D01*
X86379792Y-108530104D01*
X86530104Y-108379792D01*
X86655051Y-108207816D01*
X86751557Y-108018412D01*
X86817246Y-107816243D01*
X86850500Y-107606287D01*
X86850500Y-107393713D01*
X86817246Y-107183757D01*
X86751557Y-106981588D01*
X86655051Y-106792184D01*
X86530104Y-106620208D01*
X86530101Y-106620205D01*
X86530099Y-106620202D01*
X86379797Y-106469900D01*
X86379794Y-106469898D01*
X86379792Y-106469896D01*
X86221843Y-106355140D01*
X86221828Y-106355129D01*
X97519500Y-106355129D01*
X97519500Y-108144859D01*
X97519501Y-108144866D01*
X97522414Y-108169990D01*
X97522416Y-108169994D01*
X97567793Y-108272765D01*
X97647232Y-108352204D01*
X97647234Y-108352205D01*
X97647235Y-108352206D01*
X97750009Y-108397585D01*
X97775135Y-108400500D01*
X99564864Y-108400499D01*
X99589991Y-108397585D01*
X99692765Y-108352206D01*
X99772206Y-108272765D01*
X99817585Y-108169991D01*
X99820500Y-108144865D01*
X99820499Y-107432534D01*
X99840501Y-107364416D01*
X99894157Y-107317923D01*
X99964430Y-107307819D01*
X100029011Y-107337312D01*
X100067395Y-107397039D01*
X100070947Y-107412825D01*
X100087829Y-107519409D01*
X100087830Y-107519412D01*
X100139953Y-107679835D01*
X100143789Y-107691639D01*
X100226004Y-107852994D01*
X100332447Y-107999501D01*
X100332449Y-107999503D01*
X100332451Y-107999506D01*
X100460493Y-108127548D01*
X100460496Y-108127550D01*
X100460499Y-108127553D01*
X100607006Y-108233996D01*
X100768361Y-108316211D01*
X100940591Y-108372171D01*
X101119454Y-108400500D01*
X101119457Y-108400500D01*
X101300543Y-108400500D01*
X101300546Y-108400500D01*
X101479409Y-108372171D01*
X101651639Y-108316211D01*
X101812994Y-108233996D01*
X101959501Y-108127553D01*
X102087553Y-107999501D01*
X102193996Y-107852994D01*
X102276211Y-107691639D01*
X102332171Y-107519409D01*
X102355551Y-107371787D01*
X102385963Y-107307636D01*
X102446232Y-107270109D01*
X102517221Y-107271123D01*
X102576393Y-107310356D01*
X102604448Y-107371786D01*
X102627829Y-107519409D01*
X102627830Y-107519412D01*
X102679953Y-107679835D01*
X102683789Y-107691639D01*
X102766004Y-107852994D01*
X102872447Y-107999501D01*
X102872449Y-107999503D01*
X102872451Y-107999506D01*
X103000493Y-108127548D01*
X103000496Y-108127550D01*
X103000499Y-108127553D01*
X103147006Y-108233996D01*
X103308361Y-108316211D01*
X103480591Y-108372171D01*
X103659454Y-108400500D01*
X103659457Y-108400500D01*
X103840543Y-108400500D01*
X103840546Y-108400500D01*
X104019409Y-108372171D01*
X104191639Y-108316211D01*
X104352994Y-108233996D01*
X104499501Y-108127553D01*
X104627553Y-107999501D01*
X104733996Y-107852994D01*
X104798900Y-107725612D01*
X104847646Y-107674000D01*
X104916561Y-107656934D01*
X104983763Y-107679835D01*
X105027915Y-107735432D01*
X105030998Y-107743880D01*
X105038907Y-107768221D01*
X105135377Y-107957553D01*
X105174729Y-108011716D01*
X105174730Y-108011716D01*
X105807037Y-107379409D01*
X105824075Y-107442993D01*
X105889901Y-107557007D01*
X105982993Y-107650099D01*
X106097007Y-107715925D01*
X106160590Y-107732962D01*
X105528282Y-108365269D01*
X105582446Y-108404622D01*
X105771778Y-108501092D01*
X105771784Y-108501095D01*
X105973870Y-108566756D01*
X105973866Y-108566756D01*
X106183756Y-108600000D01*
X106396244Y-108600000D01*
X106606131Y-108566756D01*
X106808215Y-108501095D01*
X106808221Y-108501092D01*
X106997555Y-108404621D01*
X106997557Y-108404620D01*
X107051716Y-108365270D01*
X107051717Y-108365269D01*
X106419410Y-107732962D01*
X106482993Y-107715925D01*
X106597007Y-107650099D01*
X106690099Y-107557007D01*
X106755925Y-107442993D01*
X106772962Y-107379410D01*
X107405269Y-108011717D01*
X107405270Y-108011716D01*
X107444620Y-107957557D01*
X107444621Y-107957555D01*
X107541092Y-107768221D01*
X107541095Y-107768215D01*
X107606756Y-107566131D01*
X107634065Y-107393713D01*
X124899500Y-107393713D01*
X124899500Y-107606287D01*
X124932754Y-107816243D01*
X124998443Y-108018412D01*
X125094949Y-108207816D01*
X125219896Y-108379792D01*
X125219898Y-108379794D01*
X125219900Y-108379797D01*
X125370202Y-108530099D01*
X125370205Y-108530101D01*
X125370208Y-108530104D01*
X125542184Y-108655051D01*
X125731588Y-108751557D01*
X125933757Y-108817246D01*
X126143713Y-108850500D01*
X126143716Y-108850500D01*
X126356284Y-108850500D01*
X126356287Y-108850500D01*
X126566243Y-108817246D01*
X126768412Y-108751557D01*
X126957816Y-108655051D01*
X127129792Y-108530104D01*
X127280104Y-108379792D01*
X127405051Y-108207816D01*
X127501557Y-108018412D01*
X127567246Y-107816243D01*
X127600500Y-107606287D01*
X127600500Y-107393713D01*
X127567246Y-107183757D01*
X127501557Y-106981588D01*
X127405051Y-106792184D01*
X127280104Y-106620208D01*
X127280101Y-106620205D01*
X127280099Y-106620202D01*
X127129797Y-106469900D01*
X127129794Y-106469898D01*
X127129792Y-106469896D01*
X126957816Y-106344949D01*
X126768412Y-106248443D01*
X126566243Y-106182754D01*
X126356287Y-106149500D01*
X126143713Y-106149500D01*
X125933757Y-106182754D01*
X125933754Y-106182754D01*
X125933753Y-106182755D01*
X125731588Y-106248443D01*
X125731586Y-106248444D01*
X125542180Y-106344951D01*
X125370205Y-106469898D01*
X125370202Y-106469900D01*
X125219900Y-106620202D01*
X125219898Y-106620205D01*
X125094951Y-106792180D01*
X124998444Y-106981586D01*
X124998443Y-106981588D01*
X124940651Y-107159454D01*
X124932754Y-107183757D01*
X124899500Y-107393713D01*
X107634065Y-107393713D01*
X107637971Y-107369051D01*
X107637972Y-107369048D01*
X107640000Y-107356246D01*
X107640000Y-107143756D01*
X107606756Y-106933868D01*
X107541095Y-106731784D01*
X107541092Y-106731778D01*
X107444622Y-106542446D01*
X107405269Y-106488282D01*
X106772962Y-107120589D01*
X106755925Y-107057007D01*
X106690099Y-106942993D01*
X106597007Y-106849901D01*
X106482993Y-106784075D01*
X106419409Y-106767037D01*
X107051716Y-106134730D01*
X107051716Y-106134729D01*
X106997553Y-106095377D01*
X106808221Y-105998907D01*
X106808215Y-105998904D01*
X106606129Y-105933243D01*
X106606133Y-105933243D01*
X106396244Y-105900000D01*
X106183756Y-105900000D01*
X105973868Y-105933243D01*
X105771784Y-105998904D01*
X105771778Y-105998907D01*
X105582447Y-106095376D01*
X105582446Y-106095377D01*
X105528282Y-106134729D01*
X106160591Y-106767037D01*
X106097007Y-106784075D01*
X105982993Y-106849901D01*
X105889901Y-106942993D01*
X105824075Y-107057007D01*
X105807037Y-107120590D01*
X105174729Y-106488282D01*
X105135377Y-106542446D01*
X105135376Y-106542447D01*
X105038907Y-106731778D01*
X105038904Y-106731785D01*
X105030997Y-106756120D01*
X104990922Y-106814725D01*
X104925525Y-106842360D01*
X104855569Y-106830252D01*
X104803264Y-106782245D01*
X104798907Y-106774400D01*
X104733996Y-106647006D01*
X104627553Y-106500499D01*
X104627550Y-106500496D01*
X104627548Y-106500493D01*
X104499506Y-106372451D01*
X104499503Y-106372449D01*
X104499501Y-106372447D01*
X104352997Y-106266006D01*
X104352996Y-106266005D01*
X104276900Y-106227232D01*
X104191639Y-106183789D01*
X104191636Y-106183788D01*
X104191634Y-106183787D01*
X104019412Y-106127830D01*
X104019409Y-106127829D01*
X103840546Y-106099500D01*
X103659454Y-106099500D01*
X103480591Y-106127829D01*
X103480588Y-106127829D01*
X103480587Y-106127830D01*
X103308365Y-106183787D01*
X103308359Y-106183790D01*
X103147002Y-106266006D01*
X103000496Y-106372449D01*
X103000493Y-106372451D01*
X102872451Y-106500493D01*
X102872449Y-106500496D01*
X102766006Y-106647002D01*
X102683790Y-106808359D01*
X102683787Y-106808365D01*
X102643010Y-106933868D01*
X102627829Y-106980591D01*
X102611513Y-107083611D01*
X102604449Y-107128210D01*
X102574036Y-107192363D01*
X102513768Y-107229890D01*
X102442779Y-107228876D01*
X102383607Y-107189643D01*
X102355551Y-107128210D01*
X102332171Y-106980591D01*
X102276211Y-106808361D01*
X102193996Y-106647006D01*
X102087553Y-106500499D01*
X102087550Y-106500496D01*
X102087548Y-106500493D01*
X101959506Y-106372451D01*
X101959503Y-106372449D01*
X101959501Y-106372447D01*
X101812994Y-106266004D01*
X101651639Y-106183789D01*
X101651636Y-106183788D01*
X101651634Y-106183787D01*
X101479412Y-106127830D01*
X101479409Y-106127829D01*
X101300546Y-106099500D01*
X101119454Y-106099500D01*
X100940591Y-106127829D01*
X100940588Y-106127829D01*
X100940587Y-106127830D01*
X100768365Y-106183787D01*
X100768359Y-106183790D01*
X100607002Y-106266006D01*
X100460496Y-106372449D01*
X100460493Y-106372451D01*
X100332451Y-106500493D01*
X100332449Y-106500496D01*
X100226006Y-106647002D01*
X100143790Y-106808359D01*
X100143787Y-106808365D01*
X100103010Y-106933868D01*
X100087829Y-106980591D01*
X100087671Y-106981588D01*
X100070948Y-107087174D01*
X100040535Y-107151327D01*
X99980267Y-107188854D01*
X99909277Y-107187840D01*
X99850106Y-107148607D01*
X99821538Y-107083611D01*
X99820499Y-107067463D01*
X99820499Y-106355140D01*
X99820499Y-106355136D01*
X99817585Y-106330009D01*
X99801872Y-106294422D01*
X99772206Y-106227234D01*
X99692767Y-106147795D01*
X99692765Y-106147794D01*
X99589989Y-106102414D01*
X99589990Y-106102414D01*
X99564868Y-106099500D01*
X97775140Y-106099500D01*
X97775133Y-106099501D01*
X97750009Y-106102414D01*
X97750005Y-106102416D01*
X97647234Y-106147793D01*
X97567795Y-106227232D01*
X97567794Y-106227234D01*
X97522414Y-106330009D01*
X97519500Y-106355129D01*
X86221828Y-106355129D01*
X86207819Y-106344951D01*
X86207818Y-106344950D01*
X86207816Y-106344949D01*
X86018412Y-106248443D01*
X85816243Y-106182754D01*
X85606287Y-106149500D01*
X85393713Y-106149500D01*
X85183757Y-106182754D01*
X85183754Y-106182754D01*
X85183753Y-106182755D01*
X84981588Y-106248443D01*
X84981586Y-106248444D01*
X84792180Y-106344951D01*
X84620205Y-106469898D01*
X84620202Y-106469900D01*
X84469900Y-106620202D01*
X84469898Y-106620205D01*
X84344951Y-106792180D01*
X84248444Y-106981586D01*
X84248443Y-106981588D01*
X84190651Y-107159454D01*
X84182754Y-107183757D01*
X84149500Y-107393713D01*
X83488031Y-107393713D01*
X83488031Y-92878994D01*
X121594500Y-92878994D01*
X121594500Y-92878997D01*
X121594500Y-93081003D01*
X121633909Y-93279127D01*
X121711214Y-93465756D01*
X121823442Y-93633718D01*
X121966282Y-93776558D01*
X122134244Y-93888786D01*
X122320873Y-93966091D01*
X122518997Y-94005500D01*
X122518998Y-94005500D01*
X123271002Y-94005500D01*
X123271003Y-94005500D01*
X123469127Y-93966091D01*
X123655756Y-93888786D01*
X123823718Y-93776558D01*
X123966558Y-93633718D01*
X124078786Y-93465756D01*
X124156091Y-93279127D01*
X124195500Y-93081003D01*
X124195500Y-93043768D01*
X125494500Y-93043768D01*
X125494500Y-93043771D01*
X125494500Y-93216229D01*
X125528145Y-93385374D01*
X125594142Y-93544705D01*
X125689955Y-93688099D01*
X125811901Y-93810045D01*
X125955295Y-93905858D01*
X126114626Y-93971855D01*
X126283771Y-94005500D01*
X126283772Y-94005500D01*
X127106228Y-94005500D01*
X127106229Y-94005500D01*
X127275374Y-93971855D01*
X127434705Y-93905858D01*
X127578099Y-93810045D01*
X127700045Y-93688099D01*
X127795858Y-93544705D01*
X127861855Y-93385374D01*
X127895500Y-93216229D01*
X127895500Y-93043771D01*
X127861855Y-92874626D01*
X127795858Y-92715295D01*
X127700045Y-92571901D01*
X127578099Y-92449955D01*
X127434705Y-92354142D01*
X127275374Y-92288145D01*
X127106231Y-92254500D01*
X127106229Y-92254500D01*
X126283771Y-92254500D01*
X126283768Y-92254500D01*
X126114625Y-92288145D01*
X126114620Y-92288147D01*
X125955295Y-92354142D01*
X125811905Y-92449952D01*
X125811898Y-92449957D01*
X125689957Y-92571898D01*
X125689952Y-92571905D01*
X125594142Y-92715295D01*
X125528147Y-92874620D01*
X125528145Y-92874625D01*
X125494500Y-93043768D01*
X124195500Y-93043768D01*
X124195500Y-92878997D01*
X124156091Y-92680873D01*
X124114120Y-92579546D01*
X124106530Y-92508956D01*
X124138309Y-92445469D01*
X124182308Y-92414919D01*
X124276811Y-92375775D01*
X124391542Y-92299114D01*
X124489114Y-92201542D01*
X124565775Y-92086811D01*
X124618580Y-91959328D01*
X124645500Y-91823993D01*
X124645500Y-91686007D01*
X124618580Y-91550672D01*
X124565775Y-91423189D01*
X124489114Y-91308458D01*
X124489109Y-91308452D01*
X124391547Y-91210890D01*
X124391541Y-91210885D01*
X124353471Y-91185447D01*
X124276811Y-91134225D01*
X124196421Y-91100926D01*
X124149331Y-91081421D01*
X124149328Y-91081420D01*
X124013995Y-91054500D01*
X124013993Y-91054500D01*
X123876007Y-91054500D01*
X123876004Y-91054500D01*
X123740671Y-91081420D01*
X123740668Y-91081421D01*
X123613189Y-91134225D01*
X123498458Y-91210885D01*
X123498452Y-91210890D01*
X123400890Y-91308452D01*
X123400885Y-91308458D01*
X123324225Y-91423189D01*
X123271421Y-91550668D01*
X123271420Y-91550671D01*
X123244500Y-91686004D01*
X123244500Y-91828500D01*
X123224498Y-91896621D01*
X123170842Y-91943114D01*
X123118500Y-91954500D01*
X122518994Y-91954500D01*
X122371410Y-91983856D01*
X122320873Y-91993909D01*
X122320872Y-91993909D01*
X122320869Y-91993910D01*
X122134242Y-92071215D01*
X121966283Y-92183441D01*
X121966277Y-92183446D01*
X121823446Y-92326277D01*
X121823441Y-92326283D01*
X121711215Y-92494242D01*
X121633910Y-92680869D01*
X121594500Y-92878994D01*
X83488031Y-92878994D01*
X83488031Y-87181004D01*
X86219500Y-87181004D01*
X86219500Y-87318995D01*
X86241298Y-87428578D01*
X86246420Y-87454328D01*
X86299225Y-87581811D01*
X86350447Y-87658471D01*
X86375885Y-87696541D01*
X86375890Y-87696547D01*
X86473452Y-87794109D01*
X86473458Y-87794114D01*
X86588189Y-87870775D01*
X86715672Y-87923580D01*
X86851007Y-87950500D01*
X86851008Y-87950500D01*
X86988992Y-87950500D01*
X86988993Y-87950500D01*
X87124328Y-87923580D01*
X87251811Y-87870775D01*
X87366542Y-87794114D01*
X87464114Y-87696542D01*
X87540775Y-87581811D01*
X87593580Y-87454328D01*
X87620500Y-87318993D01*
X87620500Y-87181007D01*
X87593580Y-87045672D01*
X87540775Y-86918189D01*
X87464114Y-86803458D01*
X87464109Y-86803452D01*
X87366547Y-86705890D01*
X87366541Y-86705885D01*
X87328471Y-86680447D01*
X87251811Y-86629225D01*
X87171421Y-86595926D01*
X87124331Y-86576421D01*
X87124328Y-86576420D01*
X86988995Y-86549500D01*
X86988993Y-86549500D01*
X86851007Y-86549500D01*
X86851004Y-86549500D01*
X86715671Y-86576420D01*
X86715668Y-86576421D01*
X86588189Y-86629225D01*
X86473458Y-86705885D01*
X86473452Y-86705890D01*
X86375890Y-86803452D01*
X86375885Y-86803458D01*
X86299225Y-86918189D01*
X86246421Y-87045668D01*
X86246420Y-87045671D01*
X86219500Y-87181004D01*
X83488031Y-87181004D01*
X83488031Y-85428994D01*
X121594500Y-85428994D01*
X121594500Y-85428997D01*
X121594500Y-85631003D01*
X121633909Y-85829127D01*
X121711214Y-86015756D01*
X121823442Y-86183718D01*
X121966282Y-86326558D01*
X122134244Y-86438786D01*
X122320873Y-86516091D01*
X122518997Y-86555500D01*
X123118500Y-86555500D01*
X123186621Y-86575502D01*
X123233114Y-86629158D01*
X123244500Y-86681500D01*
X123244500Y-86686007D01*
X123244500Y-86823993D01*
X123271420Y-86959328D01*
X123324225Y-87086811D01*
X123375447Y-87163471D01*
X123400885Y-87201541D01*
X123400890Y-87201547D01*
X123498452Y-87299109D01*
X123498458Y-87299114D01*
X123613189Y-87375775D01*
X123740672Y-87428580D01*
X123876007Y-87455500D01*
X123876008Y-87455500D01*
X124013992Y-87455500D01*
X124013993Y-87455500D01*
X124149328Y-87428580D01*
X124276811Y-87375775D01*
X124391542Y-87299114D01*
X124489114Y-87201542D01*
X124565775Y-87086811D01*
X124618580Y-86959328D01*
X124645500Y-86823993D01*
X124645500Y-86686007D01*
X124618580Y-86550672D01*
X124565775Y-86423189D01*
X124489114Y-86308458D01*
X124489109Y-86308452D01*
X124391547Y-86210890D01*
X124391541Y-86210885D01*
X124276812Y-86134226D01*
X124276813Y-86134226D01*
X124276811Y-86134225D01*
X124182309Y-86095081D01*
X124127029Y-86050532D01*
X124104608Y-85983169D01*
X124114120Y-85930452D01*
X124156089Y-85829132D01*
X124156089Y-85829131D01*
X124156091Y-85829127D01*
X124195500Y-85631003D01*
X124195500Y-85428997D01*
X124168601Y-85293768D01*
X125494500Y-85293768D01*
X125494500Y-85293771D01*
X125494500Y-85466229D01*
X125528145Y-85635374D01*
X125594142Y-85794705D01*
X125689955Y-85938099D01*
X125811901Y-86060045D01*
X125955295Y-86155858D01*
X126114626Y-86221855D01*
X126283771Y-86255500D01*
X126283772Y-86255500D01*
X127106228Y-86255500D01*
X127106229Y-86255500D01*
X127275374Y-86221855D01*
X127434705Y-86155858D01*
X127578099Y-86060045D01*
X127700045Y-85938099D01*
X127795858Y-85794705D01*
X127861855Y-85635374D01*
X127895500Y-85466229D01*
X127895500Y-85293771D01*
X127861855Y-85124626D01*
X127795858Y-84965295D01*
X127700045Y-84821901D01*
X127578099Y-84699955D01*
X127434705Y-84604142D01*
X127275374Y-84538145D01*
X127106231Y-84504500D01*
X127106229Y-84504500D01*
X126283771Y-84504500D01*
X126283768Y-84504500D01*
X126114625Y-84538145D01*
X126114620Y-84538147D01*
X125955295Y-84604142D01*
X125811905Y-84699952D01*
X125811898Y-84699957D01*
X125689957Y-84821898D01*
X125689952Y-84821905D01*
X125594142Y-84965295D01*
X125528147Y-85124620D01*
X125528145Y-85124625D01*
X125494500Y-85293768D01*
X124168601Y-85293768D01*
X124156091Y-85230873D01*
X124156089Y-85230869D01*
X124142825Y-85198848D01*
X124078786Y-85044244D01*
X123966558Y-84876282D01*
X123823718Y-84733442D01*
X123655756Y-84621214D01*
X123523793Y-84566553D01*
X123469130Y-84543910D01*
X123469128Y-84543909D01*
X123469127Y-84543909D01*
X123369394Y-84524071D01*
X123271005Y-84504500D01*
X123271003Y-84504500D01*
X122518997Y-84504500D01*
X122518994Y-84504500D01*
X122371410Y-84533856D01*
X122320873Y-84543909D01*
X122320872Y-84543909D01*
X122320869Y-84543910D01*
X122134242Y-84621215D01*
X121966283Y-84733441D01*
X121966277Y-84733446D01*
X121823446Y-84876277D01*
X121823441Y-84876283D01*
X121711215Y-85044242D01*
X121633910Y-85230869D01*
X121594500Y-85428994D01*
X83488031Y-85428994D01*
X83488031Y-84181004D01*
X86219500Y-84181004D01*
X86219500Y-84181007D01*
X86219500Y-84318993D01*
X86246420Y-84454328D01*
X86299225Y-84581811D01*
X86325554Y-84621215D01*
X86375885Y-84696541D01*
X86375890Y-84696547D01*
X86473452Y-84794109D01*
X86473458Y-84794114D01*
X86588189Y-84870775D01*
X86715672Y-84923580D01*
X86851007Y-84950500D01*
X86851008Y-84950500D01*
X86988992Y-84950500D01*
X86988993Y-84950500D01*
X87124328Y-84923580D01*
X87251811Y-84870775D01*
X87366542Y-84794114D01*
X87464114Y-84696542D01*
X87540775Y-84581811D01*
X87593580Y-84454328D01*
X87620500Y-84318993D01*
X87620500Y-84181007D01*
X87593580Y-84045672D01*
X87540775Y-83918189D01*
X87464114Y-83803458D01*
X87464109Y-83803452D01*
X87366547Y-83705890D01*
X87366541Y-83705885D01*
X87328471Y-83680447D01*
X87251811Y-83629225D01*
X87171421Y-83595926D01*
X87124331Y-83576421D01*
X87124328Y-83576420D01*
X86988995Y-83549500D01*
X86988993Y-83549500D01*
X86851007Y-83549500D01*
X86851004Y-83549500D01*
X86715671Y-83576420D01*
X86715668Y-83576421D01*
X86588189Y-83629225D01*
X86473458Y-83705885D01*
X86473452Y-83705890D01*
X86375890Y-83803452D01*
X86375885Y-83803458D01*
X86299225Y-83918189D01*
X86246421Y-84045668D01*
X86246420Y-84045671D01*
X86219500Y-84181004D01*
X83488031Y-84181004D01*
X83488031Y-78521950D01*
X83488308Y-78513593D01*
X83495095Y-78411480D01*
X84149500Y-78411480D01*
X84149500Y-78624054D01*
X84182754Y-78834010D01*
X84248443Y-79036179D01*
X84344949Y-79225583D01*
X84469896Y-79397559D01*
X84469898Y-79397561D01*
X84469900Y-79397564D01*
X84620202Y-79547866D01*
X84620205Y-79547868D01*
X84620208Y-79547871D01*
X84792184Y-79672818D01*
X84981588Y-79769324D01*
X85183757Y-79835013D01*
X85393713Y-79868267D01*
X85393716Y-79868267D01*
X85606284Y-79868267D01*
X85606287Y-79868267D01*
X85816243Y-79835013D01*
X86018412Y-79769324D01*
X86207816Y-79672818D01*
X86379792Y-79547871D01*
X86411313Y-79516350D01*
X86449511Y-79478153D01*
X86530099Y-79397564D01*
X86530104Y-79397559D01*
X86655051Y-79225583D01*
X86751557Y-79036179D01*
X86817246Y-78834010D01*
X86850500Y-78624054D01*
X86850500Y-78411480D01*
X86847693Y-78393756D01*
X96530000Y-78393756D01*
X96530000Y-78606243D01*
X96563243Y-78816131D01*
X96628904Y-79018215D01*
X96628907Y-79018221D01*
X96725377Y-79207553D01*
X96764729Y-79261716D01*
X96764730Y-79261716D01*
X97397037Y-78629409D01*
X97414075Y-78692993D01*
X97479901Y-78807007D01*
X97572993Y-78900099D01*
X97687007Y-78965925D01*
X97750590Y-78982962D01*
X97118282Y-79615269D01*
X97172446Y-79654622D01*
X97361778Y-79751092D01*
X97361784Y-79751095D01*
X97563870Y-79816756D01*
X97563866Y-79816756D01*
X97773756Y-79850000D01*
X97986244Y-79850000D01*
X98196131Y-79816756D01*
X98398215Y-79751095D01*
X98398221Y-79751092D01*
X98587555Y-79654621D01*
X98587557Y-79654620D01*
X98641716Y-79615270D01*
X98641717Y-79615269D01*
X98009410Y-78982962D01*
X98072993Y-78965925D01*
X98187007Y-78900099D01*
X98280099Y-78807007D01*
X98345925Y-78692993D01*
X98362962Y-78629410D01*
X98995269Y-79261717D01*
X98995270Y-79261716D01*
X99034620Y-79207557D01*
X99034621Y-79207555D01*
X99131092Y-79018221D01*
X99131093Y-79018220D01*
X99139000Y-78993884D01*
X99179073Y-78935278D01*
X99244469Y-78907640D01*
X99314426Y-78919745D01*
X99366733Y-78967750D01*
X99371097Y-78975609D01*
X99436004Y-79102994D01*
X99542447Y-79249501D01*
X99542449Y-79249503D01*
X99542451Y-79249506D01*
X99670493Y-79377548D01*
X99670496Y-79377550D01*
X99670499Y-79377553D01*
X99817006Y-79483996D01*
X99978361Y-79566211D01*
X100150591Y-79622171D01*
X100329454Y-79650500D01*
X100329457Y-79650500D01*
X100510543Y-79650500D01*
X100510546Y-79650500D01*
X100689409Y-79622171D01*
X100861639Y-79566211D01*
X101022994Y-79483996D01*
X101169501Y-79377553D01*
X101297553Y-79249501D01*
X101403996Y-79102994D01*
X101486211Y-78941639D01*
X101542171Y-78769409D01*
X101565551Y-78621787D01*
X101595963Y-78557636D01*
X101656232Y-78520109D01*
X101727221Y-78521123D01*
X101786393Y-78560356D01*
X101814448Y-78621786D01*
X101837829Y-78769409D01*
X101837830Y-78769411D01*
X101837830Y-78769412D01*
X101865168Y-78853553D01*
X101893789Y-78941639D01*
X101976004Y-79102994D01*
X102082447Y-79249501D01*
X102082449Y-79249503D01*
X102082451Y-79249506D01*
X102210493Y-79377548D01*
X102210496Y-79377550D01*
X102210499Y-79377553D01*
X102357006Y-79483996D01*
X102518361Y-79566211D01*
X102690591Y-79622171D01*
X102869454Y-79650500D01*
X102869457Y-79650500D01*
X103050543Y-79650500D01*
X103050546Y-79650500D01*
X103229409Y-79622171D01*
X103401639Y-79566211D01*
X103562994Y-79483996D01*
X103709501Y-79377553D01*
X103837553Y-79249501D01*
X103943996Y-79102994D01*
X104026211Y-78941639D01*
X104082171Y-78769409D01*
X104099052Y-78662822D01*
X104129463Y-78598673D01*
X104189731Y-78561145D01*
X104260720Y-78562159D01*
X104319893Y-78601391D01*
X104348461Y-78666386D01*
X104349500Y-78682536D01*
X104349500Y-79394859D01*
X104349501Y-79394866D01*
X104352414Y-79419990D01*
X104352416Y-79419994D01*
X104397793Y-79522765D01*
X104477232Y-79602204D01*
X104477234Y-79602205D01*
X104477235Y-79602206D01*
X104580009Y-79647585D01*
X104605135Y-79650500D01*
X106394864Y-79650499D01*
X106419991Y-79647585D01*
X106522765Y-79602206D01*
X106602206Y-79522765D01*
X106647585Y-79419991D01*
X106650500Y-79394865D01*
X106650499Y-78393756D01*
X109090000Y-78393756D01*
X109090000Y-78606243D01*
X109123243Y-78816131D01*
X109188904Y-79018215D01*
X109188907Y-79018221D01*
X109285377Y-79207553D01*
X109324729Y-79261716D01*
X109324730Y-79261716D01*
X109957037Y-78629409D01*
X109974075Y-78692993D01*
X110039901Y-78807007D01*
X110132993Y-78900099D01*
X110247007Y-78965925D01*
X110310590Y-78982962D01*
X109678282Y-79615269D01*
X109732446Y-79654622D01*
X109921778Y-79751092D01*
X109921784Y-79751095D01*
X110123870Y-79816756D01*
X110123866Y-79816756D01*
X110333756Y-79850000D01*
X110546244Y-79850000D01*
X110756131Y-79816756D01*
X110958215Y-79751095D01*
X110958221Y-79751092D01*
X111147555Y-79654621D01*
X111147557Y-79654620D01*
X111201716Y-79615270D01*
X111201717Y-79615269D01*
X110569410Y-78982962D01*
X110632993Y-78965925D01*
X110747007Y-78900099D01*
X110840099Y-78807007D01*
X110905925Y-78692993D01*
X110922962Y-78629410D01*
X111555269Y-79261717D01*
X111555270Y-79261716D01*
X111594620Y-79207557D01*
X111594621Y-79207555D01*
X111691092Y-79018221D01*
X111691093Y-79018220D01*
X111699000Y-78993884D01*
X111739073Y-78935278D01*
X111804469Y-78907640D01*
X111874426Y-78919745D01*
X111926733Y-78967750D01*
X111931097Y-78975609D01*
X111996004Y-79102994D01*
X112102447Y-79249501D01*
X112102449Y-79249503D01*
X112102451Y-79249506D01*
X112230493Y-79377548D01*
X112230496Y-79377550D01*
X112230499Y-79377553D01*
X112377006Y-79483996D01*
X112538361Y-79566211D01*
X112710591Y-79622171D01*
X112889454Y-79650500D01*
X112889457Y-79650500D01*
X113070543Y-79650500D01*
X113070546Y-79650500D01*
X113249409Y-79622171D01*
X113421639Y-79566211D01*
X113582994Y-79483996D01*
X113729501Y-79377553D01*
X113857553Y-79249501D01*
X113963996Y-79102994D01*
X114046211Y-78941639D01*
X114102171Y-78769409D01*
X114125551Y-78621787D01*
X114155963Y-78557636D01*
X114216232Y-78520109D01*
X114287221Y-78521123D01*
X114346393Y-78560356D01*
X114374448Y-78621786D01*
X114397829Y-78769409D01*
X114397830Y-78769411D01*
X114397830Y-78769412D01*
X114425168Y-78853553D01*
X114453789Y-78941639D01*
X114536004Y-79102994D01*
X114642447Y-79249501D01*
X114642449Y-79249503D01*
X114642451Y-79249506D01*
X114770493Y-79377548D01*
X114770496Y-79377550D01*
X114770499Y-79377553D01*
X114917006Y-79483996D01*
X115078361Y-79566211D01*
X115250591Y-79622171D01*
X115429454Y-79650500D01*
X115429457Y-79650500D01*
X115610543Y-79650500D01*
X115610546Y-79650500D01*
X115789409Y-79622171D01*
X115961639Y-79566211D01*
X116122994Y-79483996D01*
X116269501Y-79377553D01*
X116397553Y-79249501D01*
X116503996Y-79102994D01*
X116586211Y-78941639D01*
X116642171Y-78769409D01*
X116659052Y-78662822D01*
X116689463Y-78598673D01*
X116749731Y-78561145D01*
X116820720Y-78562159D01*
X116879893Y-78601391D01*
X116908461Y-78666386D01*
X116909500Y-78682536D01*
X116909500Y-79394859D01*
X116909501Y-79394866D01*
X116912414Y-79419990D01*
X116912416Y-79419994D01*
X116957793Y-79522765D01*
X117037232Y-79602204D01*
X117037234Y-79602205D01*
X117037235Y-79602206D01*
X117140009Y-79647585D01*
X117165135Y-79650500D01*
X118954864Y-79650499D01*
X118979991Y-79647585D01*
X119082765Y-79602206D01*
X119162206Y-79522765D01*
X119207585Y-79419991D01*
X119210500Y-79394865D01*
X119210499Y-78411480D01*
X124899500Y-78411480D01*
X124899500Y-78624054D01*
X124932754Y-78834010D01*
X124998443Y-79036179D01*
X125094949Y-79225583D01*
X125219896Y-79397559D01*
X125219898Y-79397561D01*
X125219900Y-79397564D01*
X125370202Y-79547866D01*
X125370205Y-79547868D01*
X125370208Y-79547871D01*
X125542184Y-79672818D01*
X125731588Y-79769324D01*
X125933757Y-79835013D01*
X126143713Y-79868267D01*
X126143716Y-79868267D01*
X126356284Y-79868267D01*
X126356287Y-79868267D01*
X126566243Y-79835013D01*
X126768412Y-79769324D01*
X126957816Y-79672818D01*
X127129792Y-79547871D01*
X127280104Y-79397559D01*
X127405051Y-79225583D01*
X127501557Y-79036179D01*
X127567246Y-78834010D01*
X127600500Y-78624054D01*
X127600500Y-78411480D01*
X127567246Y-78201524D01*
X127501557Y-77999355D01*
X127405051Y-77809951D01*
X127280104Y-77637975D01*
X127280101Y-77637972D01*
X127280099Y-77637969D01*
X127129797Y-77487667D01*
X127129794Y-77487665D01*
X127129792Y-77487663D01*
X126978619Y-77377830D01*
X126957819Y-77362718D01*
X126957818Y-77362717D01*
X126957816Y-77362716D01*
X126768412Y-77266210D01*
X126566243Y-77200521D01*
X126356287Y-77167267D01*
X126143713Y-77167267D01*
X125933757Y-77200521D01*
X125933754Y-77200521D01*
X125933753Y-77200522D01*
X125731588Y-77266210D01*
X125731586Y-77266211D01*
X125542180Y-77362718D01*
X125370205Y-77487665D01*
X125370202Y-77487667D01*
X125219900Y-77637969D01*
X125219898Y-77637972D01*
X125094951Y-77809947D01*
X124998444Y-77999353D01*
X124998443Y-77999355D01*
X124967995Y-78093065D01*
X124932754Y-78201524D01*
X124899500Y-78411480D01*
X119210499Y-78411480D01*
X119210499Y-77605136D01*
X119207585Y-77580009D01*
X119183484Y-77525426D01*
X119162206Y-77477234D01*
X119082767Y-77397795D01*
X119082765Y-77397794D01*
X118979989Y-77352414D01*
X118979990Y-77352414D01*
X118954868Y-77349500D01*
X117165140Y-77349500D01*
X117165133Y-77349501D01*
X117140009Y-77352414D01*
X117140005Y-77352416D01*
X117037234Y-77397793D01*
X116957795Y-77477232D01*
X116957794Y-77477234D01*
X116912414Y-77580009D01*
X116909500Y-77605129D01*
X116909500Y-78317462D01*
X116889498Y-78385583D01*
X116835842Y-78432076D01*
X116765568Y-78442180D01*
X116700988Y-78412686D01*
X116662604Y-78352960D01*
X116659053Y-78337182D01*
X116642171Y-78230591D01*
X116586211Y-78058361D01*
X116503996Y-77897006D01*
X116397553Y-77750499D01*
X116397550Y-77750496D01*
X116397548Y-77750493D01*
X116269506Y-77622451D01*
X116269503Y-77622449D01*
X116269501Y-77622447D01*
X116122994Y-77516004D01*
X115961639Y-77433789D01*
X115961636Y-77433788D01*
X115961634Y-77433787D01*
X115789412Y-77377830D01*
X115789409Y-77377829D01*
X115610546Y-77349500D01*
X115429454Y-77349500D01*
X115250591Y-77377829D01*
X115250588Y-77377829D01*
X115250587Y-77377830D01*
X115078365Y-77433787D01*
X115078359Y-77433790D01*
X114917002Y-77516006D01*
X114770496Y-77622449D01*
X114770493Y-77622451D01*
X114642451Y-77750493D01*
X114642449Y-77750496D01*
X114536006Y-77897002D01*
X114453790Y-78058359D01*
X114453787Y-78058365D01*
X114407273Y-78201524D01*
X114397829Y-78230591D01*
X114380949Y-78337172D01*
X114374449Y-78378210D01*
X114344036Y-78442363D01*
X114283768Y-78479890D01*
X114212779Y-78478876D01*
X114153607Y-78439643D01*
X114125551Y-78378210D01*
X114122748Y-78360511D01*
X114102171Y-78230591D01*
X114046211Y-78058361D01*
X113963996Y-77897006D01*
X113857553Y-77750499D01*
X113857550Y-77750496D01*
X113857548Y-77750493D01*
X113729506Y-77622451D01*
X113729503Y-77622449D01*
X113729501Y-77622447D01*
X113582994Y-77516004D01*
X113421639Y-77433789D01*
X113421636Y-77433788D01*
X113421634Y-77433787D01*
X113249412Y-77377830D01*
X113249409Y-77377829D01*
X113070546Y-77349500D01*
X112889454Y-77349500D01*
X112710591Y-77377829D01*
X112710588Y-77377829D01*
X112710587Y-77377830D01*
X112538365Y-77433787D01*
X112538359Y-77433790D01*
X112377002Y-77516006D01*
X112230496Y-77622449D01*
X112230493Y-77622451D01*
X112102451Y-77750493D01*
X112102449Y-77750496D01*
X111996004Y-77897005D01*
X111931100Y-78024385D01*
X111882352Y-78076000D01*
X111813437Y-78093065D01*
X111746235Y-78070164D01*
X111702084Y-78014566D01*
X111699001Y-78006116D01*
X111691096Y-77981787D01*
X111691092Y-77981778D01*
X111594622Y-77792446D01*
X111555269Y-77738282D01*
X110922962Y-78370589D01*
X110905925Y-78307007D01*
X110840099Y-78192993D01*
X110747007Y-78099901D01*
X110632993Y-78034075D01*
X110569409Y-78017037D01*
X111201716Y-77384730D01*
X111201716Y-77384729D01*
X111147553Y-77345377D01*
X110958221Y-77248907D01*
X110958215Y-77248904D01*
X110756129Y-77183243D01*
X110756133Y-77183243D01*
X110546244Y-77150000D01*
X110333756Y-77150000D01*
X110123868Y-77183243D01*
X109921784Y-77248904D01*
X109921778Y-77248907D01*
X109732447Y-77345376D01*
X109732446Y-77345377D01*
X109678282Y-77384729D01*
X110310591Y-78017037D01*
X110247007Y-78034075D01*
X110132993Y-78099901D01*
X110039901Y-78192993D01*
X109974075Y-78307007D01*
X109957037Y-78370590D01*
X109324729Y-77738282D01*
X109285377Y-77792446D01*
X109285376Y-77792447D01*
X109188907Y-77981778D01*
X109188904Y-77981784D01*
X109123243Y-78183868D01*
X109090000Y-78393756D01*
X106650499Y-78393756D01*
X106650499Y-77605136D01*
X106647585Y-77580009D01*
X106602206Y-77477235D01*
X106602205Y-77477234D01*
X106602205Y-77477233D01*
X106522767Y-77397795D01*
X106522765Y-77397794D01*
X106419989Y-77352414D01*
X106419990Y-77352414D01*
X106394868Y-77349500D01*
X104605140Y-77349500D01*
X104605133Y-77349501D01*
X104580009Y-77352414D01*
X104580005Y-77352416D01*
X104477234Y-77397793D01*
X104397795Y-77477232D01*
X104397794Y-77477234D01*
X104352414Y-77580009D01*
X104349500Y-77605129D01*
X104349500Y-78317462D01*
X104329498Y-78385583D01*
X104275842Y-78432076D01*
X104205568Y-78442180D01*
X104140988Y-78412686D01*
X104102604Y-78352960D01*
X104099053Y-78337182D01*
X104082171Y-78230591D01*
X104026211Y-78058361D01*
X103943996Y-77897006D01*
X103837553Y-77750499D01*
X103837550Y-77750496D01*
X103837548Y-77750493D01*
X103709506Y-77622451D01*
X103709503Y-77622449D01*
X103709501Y-77622447D01*
X103562994Y-77516004D01*
X103401639Y-77433789D01*
X103401636Y-77433788D01*
X103401634Y-77433787D01*
X103229412Y-77377830D01*
X103229409Y-77377829D01*
X103050546Y-77349500D01*
X102869454Y-77349500D01*
X102690591Y-77377829D01*
X102690588Y-77377829D01*
X102690587Y-77377830D01*
X102518365Y-77433787D01*
X102518359Y-77433790D01*
X102357002Y-77516006D01*
X102210496Y-77622449D01*
X102210493Y-77622451D01*
X102082451Y-77750493D01*
X102082449Y-77750496D01*
X101976006Y-77897002D01*
X101893790Y-78058359D01*
X101893787Y-78058365D01*
X101847273Y-78201524D01*
X101837829Y-78230591D01*
X101820949Y-78337172D01*
X101814449Y-78378210D01*
X101784036Y-78442363D01*
X101723768Y-78479890D01*
X101652779Y-78478876D01*
X101593607Y-78439643D01*
X101565551Y-78378210D01*
X101562748Y-78360511D01*
X101542171Y-78230591D01*
X101486211Y-78058361D01*
X101403996Y-77897006D01*
X101297553Y-77750499D01*
X101297550Y-77750496D01*
X101297548Y-77750493D01*
X101169506Y-77622451D01*
X101169503Y-77622449D01*
X101169501Y-77622447D01*
X101022994Y-77516004D01*
X100861639Y-77433789D01*
X100861636Y-77433788D01*
X100861634Y-77433787D01*
X100689412Y-77377830D01*
X100689409Y-77377829D01*
X100510546Y-77349500D01*
X100329454Y-77349500D01*
X100150591Y-77377829D01*
X100150588Y-77377829D01*
X100150587Y-77377830D01*
X99978365Y-77433787D01*
X99978359Y-77433790D01*
X99817002Y-77516006D01*
X99670496Y-77622449D01*
X99670493Y-77622451D01*
X99542451Y-77750493D01*
X99542449Y-77750496D01*
X99436004Y-77897005D01*
X99371100Y-78024385D01*
X99322352Y-78076000D01*
X99253437Y-78093065D01*
X99186235Y-78070164D01*
X99142084Y-78014566D01*
X99139001Y-78006116D01*
X99131096Y-77981787D01*
X99131092Y-77981778D01*
X99034622Y-77792446D01*
X98995269Y-77738282D01*
X98362962Y-78370589D01*
X98345925Y-78307007D01*
X98280099Y-78192993D01*
X98187007Y-78099901D01*
X98072993Y-78034075D01*
X98009409Y-78017037D01*
X98641716Y-77384730D01*
X98641716Y-77384729D01*
X98587553Y-77345377D01*
X98398221Y-77248907D01*
X98398215Y-77248904D01*
X98196129Y-77183243D01*
X98196133Y-77183243D01*
X97986244Y-77150000D01*
X97773756Y-77150000D01*
X97563868Y-77183243D01*
X97361784Y-77248904D01*
X97361778Y-77248907D01*
X97172447Y-77345376D01*
X97172446Y-77345377D01*
X97118282Y-77384729D01*
X97750591Y-78017037D01*
X97687007Y-78034075D01*
X97572993Y-78099901D01*
X97479901Y-78192993D01*
X97414075Y-78307007D01*
X97397037Y-78370590D01*
X96764729Y-77738282D01*
X96725377Y-77792446D01*
X96725376Y-77792447D01*
X96628907Y-77981778D01*
X96628904Y-77981784D01*
X96563243Y-78183868D01*
X96530000Y-78393756D01*
X86847693Y-78393756D01*
X86817246Y-78201524D01*
X86751557Y-77999355D01*
X86655051Y-77809951D01*
X86530104Y-77637975D01*
X86530101Y-77637972D01*
X86530099Y-77637969D01*
X86379797Y-77487667D01*
X86379794Y-77487665D01*
X86379792Y-77487663D01*
X86228619Y-77377830D01*
X86207819Y-77362718D01*
X86207818Y-77362717D01*
X86207816Y-77362716D01*
X86018412Y-77266210D01*
X85816243Y-77200521D01*
X85606287Y-77167267D01*
X85393713Y-77167267D01*
X85183757Y-77200521D01*
X85183754Y-77200521D01*
X85183753Y-77200522D01*
X84981588Y-77266210D01*
X84981586Y-77266211D01*
X84792180Y-77362718D01*
X84620205Y-77487665D01*
X84620202Y-77487667D01*
X84469900Y-77637969D01*
X84469898Y-77637972D01*
X84344951Y-77809947D01*
X84248444Y-77999353D01*
X84248443Y-77999355D01*
X84217995Y-78093065D01*
X84182754Y-78201524D01*
X84149500Y-78411480D01*
X83495095Y-78411480D01*
X83495980Y-78398172D01*
X83495980Y-78398171D01*
X83502039Y-78307007D01*
X83505175Y-78259831D01*
X83507384Y-78243281D01*
X83556862Y-77998079D01*
X83561241Y-77981974D01*
X83642739Y-77745470D01*
X83649215Y-77730081D01*
X83761285Y-77506470D01*
X83769747Y-77492058D01*
X83775469Y-77483646D01*
X83910431Y-77285238D01*
X83920715Y-77272088D01*
X84087531Y-77085710D01*
X84099476Y-77074027D01*
X84194486Y-76992694D01*
X84289502Y-76911357D01*
X84302871Y-76901370D01*
X84512753Y-76765282D01*
X84527328Y-76757150D01*
X84753380Y-76650037D01*
X84768912Y-76643903D01*
X85007139Y-76567653D01*
X85023355Y-76563626D01*
X85249718Y-76523129D01*
X85271892Y-76521161D01*
X126245158Y-76518267D01*
X126245878Y-76518267D01*
X126254118Y-76518537D01*
G37*
%TD.AperFunction*%
%TD*%
M02*
